HIERARCHY
ROOT Hips
{
 OFFSET 0.000000 0.000000 0.000000
 CHANNELS 6 Xposition Yposition Zposition Yrotation Xrotation Zrotation
 JOINT Chest
 {
  OFFSET 0.000000 9.585900 0.002600
  CHANNELS 3 Yrotation Xrotation Zrotation
  JOINT Chest2
  {
   OFFSET 0.000000 9.601200 -0.005300
   CHANNELS 3 Yrotation Xrotation Zrotation
   JOINT Chest3
   {
    OFFSET 0.000000 9.561800 0.000000
    CHANNELS 3 Yrotation Xrotation Zrotation
    JOINT Chest4
    {
     OFFSET 0.000000 9.552100 0.000000
     CHANNELS 3 Yrotation Xrotation Zrotation
     JOINT Neck
     {
      OFFSET 0.000000 14.453000 0.000000
      CHANNELS 3 Yrotation Xrotation Zrotation
      JOINT Head
      {
       OFFSET 0.000000 8.936500 -0.011300
       CHANNELS 3 Yrotation Xrotation Zrotation
       End Site
       {
        OFFSET 0.000000 17.073600 -0.006000
       }
      }
     }
     JOINT RightCollar
     {
      OFFSET -2.921100 9.558500 0.000000
      CHANNELS 3 Yrotation Xrotation Zrotation
      JOINT RightShoulder
      {
       OFFSET -13.519700 0.000000 0.000000
       CHANNELS 3 Yrotation Xrotation Zrotation
       JOINT RightElbow
       {
        OFFSET 0.000000 -29.696600 0.000000
        CHANNELS 3 Yrotation Xrotation Zrotation
        JOINT RightWrist
        {
         OFFSET 0.000000 -24.004700 0.000000
         CHANNELS 3 Yrotation Xrotation Zrotation
         End Site
         {
          OFFSET 0.000000 -17.728500 0.000000
         }
        }
       }
      }
     }
     JOINT LeftCollar
     {
      OFFSET 2.921100 9.558500 0.000000
      CHANNELS 3 Yrotation Xrotation Zrotation
      JOINT LeftShoulder
      {
       OFFSET 13.519700 0.000000 0.000000
       CHANNELS 3 Yrotation Xrotation Zrotation
       JOINT LeftElbow
       {
        OFFSET 0.000000 -29.696600 0.000000
        CHANNELS 3 Yrotation Xrotation Zrotation
        JOINT LeftWrist
        {
         OFFSET 0.000000 -24.004700 0.000000
         CHANNELS 3 Yrotation Xrotation Zrotation
         End Site
         {
          OFFSET 0.000000 -17.728500 0.000000
         }
        }
       }
      }
     }
    }
   }
  }
 }
 JOINT RightHip
 {
  OFFSET -7.771700 -0.012900 -0.001300
  CHANNELS 3 Yrotation Xrotation Zrotation
  JOINT RightKnee
  {
   OFFSET 0.000000 -40.869800 0.001200
   CHANNELS 3 Yrotation Xrotation Zrotation
   JOINT RightAnkle
   {
    OFFSET 0.000000 -39.717900 0.002100
    CHANNELS 3 Yrotation Xrotation Zrotation
    JOINT RightToe
    {
     OFFSET 0.000000 -4.965400 11.033500
     CHANNELS 3 Yrotation Xrotation Zrotation
     End Site
     {
      OFFSET 0.000000 -1.423100 5.872300
     }
    }
   }
  }
 }
 JOINT LeftHip
 {
  OFFSET 7.771700 -0.012900 -0.001300
  CHANNELS 3 Yrotation Xrotation Zrotation
  JOINT LeftKnee
  {
   OFFSET 0.000000 -40.869800 0.001200
   CHANNELS 3 Yrotation Xrotation Zrotation
   JOINT LeftAnkle
   {
    OFFSET 0.000000 -39.717900 0.002100
    CHANNELS 3 Yrotation Xrotation Zrotation
    JOINT LeftToe
    {
     OFFSET 0.000000 -4.965400 11.033500
     CHANNELS 3 Yrotation Xrotation Zrotation
     End Site
     {
      OFFSET 0.000000 -1.423100 5.872300
     }
    }
   }
  }
 }
}
MOTION
Frames: 9
Frame Time: 0.008333
22.305951 49.885274 59.054141 173.311915 -33.788837 -7.178778 6.296535 21.023263 6.392255 0.765112 2.988914 0.625318 1.262296 4.830055 1.020891 5.267935 17.888755 4.529890 -1.942493 16.027858 1.831766 -4.240173 -6.089183 4.032712 -2.621161 -4.428797 -5.550531 7.489095 -9.186742 -3.323349 78.532787 -85.043832 -93.013571 14.546953 5.305742 41.220935 -11.535090 -1.822727 -0.010888 13.182826 -9.859665 1.113993 -177.207752 -79.213863 -178.639553 -4.198730 15.665007 -89.265269 1.087699 -46.910186 10.701125 -116.686062 83.990693 -104.879487 -2.179593 -12.937633 -2.856326 0.006441 0.795825 -0.035538 -8.517915 -50.673113 16.134442 -149.458157 80.704075 -156.721087 1.785319 -16.362820 8.201670 -0.420691 -0.741793 -0.123810
22.307583 49.890949 59.048803 173.321564 -33.727449 -7.177860 6.281767 20.992662 6.395256 0.762230 2.981158 0.624655 1.254146 4.831194 1.034350 5.255714 17.858685 4.513036 -1.927588 15.921702 1.764518 -4.217850 -6.131831 3.972872 -2.614112 -4.421334 -5.674796 7.361563 -9.027362 -3.873520 84.794528 -84.942173 -98.661556 14.965315 4.746999 43.586010 -11.511660 -1.911518 0.048413 13.158551 -9.917296 1.549200 179.900652 -78.758605 -176.490926 -3.964210 15.576553 -90.231228 1.048991 -46.958486 10.692064 -116.791764 84.000197 -104.979763 -2.215715 -12.982261 -2.829286 -0.055103 0.818302 -0.069101 -8.546878 -50.730220 16.158906 -149.385565 80.693083 -156.668735 1.780767 -16.388152 8.196936 -0.400201 -0.734988 -0.118447
22.315173 49.897148 59.042235 173.327724 -33.672826 -7.206734 6.284621 20.962830 6.433262 0.758456 2.968377 0.620129 1.250590 4.821504 1.033732 5.249587 17.847919 4.509881 -1.914610 15.858563 1.733051 -4.185159 -6.233932 3.891475 -2.605901 -4.422207 -5.788463 7.248690 -8.856078 -4.438003 91.126359 -84.866033 -104.386680 15.280916 4.184850 45.877377 -11.481691 -2.004464 0.129733 13.089040 -9.963518 2.000858 176.723950 -78.296528 -174.077656 -3.596773 15.514659 -90.810000 0.989838 -46.998167 10.721036 -116.878897 84.017632 -105.065270 -2.150843 -13.016943 -2.836246 -0.071056 0.840383 -0.079715 -8.647389 -50.768861 16.286940 -149.087372 80.655728 -156.429636 1.764436 -16.425027 8.215826 -0.388190 -0.724845 -0.114853
22.326107 49.906229 59.029595 173.324355 -33.658015 -7.241424 6.302980 20.956601 6.479451 0.756164 2.959772 0.615846 1.249383 4.818203 1.033567 5.244926 17.838057 4.514629 -1.906695 15.830928 1.712874 -4.138497 -6.371288 3.803546 -2.590992 -4.422433 -5.900695 7.175054 -8.680646 -5.007503 97.488750 -84.786117 -110.187930 15.490355 3.604601 48.090011 -11.444061 -2.096994 0.216709 12.969757 -10.003648 2.469936 173.373730 -77.838971 -171.494119 -3.113456 15.484454 -91.091090 0.916892 -46.994222 10.755526 -117.215630 84.056115 -105.368637 -2.093194 -13.082828 -2.903964 -0.046293 0.874928 -0.068997 -8.716698 -50.773696 16.394092 -148.869153 80.610265 -156.264893 1.842889 -16.432277 8.264009 -0.461583 -0.783593 -0.165873
22.332227 49.906903 59.025540 173.320001 -33.568583 -7.247289 6.299100 20.879629 6.487628 0.756986 2.963826 0.624349 1.245877 4.804760 1.033960 5.248770 17.794197 4.553525 -1.902236 15.784028 1.640288 -4.111684 -6.444410 3.729123 -2.580750 -4.387800 -6.058419 7.155408 -8.507506 -5.570368 103.816831 -84.676374 -116.025331 15.590145 2.984882 50.223545 -11.417651 -2.163756 0.255191 12.806896 -10.042934 2.950692 169.914293 -77.391565 -168.801012 -2.543305 15.486864 -91.155748 0.880111 -47.084379 10.772459 -117.380543 84.063033 -105.528494 -2.067748 -13.107461 -2.920907 -0.016879 0.889458 -0.064627 -8.768925 -50.861133 16.461194 -148.746771 80.583312 -156.175607 1.855303 -16.465672 8.285572 -0.467317 -0.776665 -0.175753
22.340700 49.909438 59.016895 173.315604 -33.510446 -7.258528 6.312259 20.843805 6.518183 0.754655 2.955620 0.625200 1.242197 4.791988 1.035354 5.253421 17.768167 4.571147 -1.886399 15.728749 1.597401 -4.090355 -6.500593 3.656155 -2.584600 -4.366387 -6.143942 7.211735 -8.331407 -6.168084 110.080590 -84.524233 -121.877347 15.586318 2.310317 52.291548 -11.397460 -2.238122 0.315431 12.612182 -10.086277 3.431109 166.414377 -76.952836 -166.065588 -1.930708 15.517516 -91.090292 0.842767 -47.142898 10.799596 -117.557387 84.068423 -105.698601 -2.037045 -13.121494 -2.944510 0.010371 0.891120 -0.055989 -8.811148 -50.915315 16.520022 -148.681011 80.561470 -156.129414 1.862071 -16.490120 8.296250 -0.468059 -0.777857 -0.182243
22.350708 49.912639 59.005745 173.348748 -33.466559 -7.293244 6.321139 20.838644 6.587072 0.733623 2.930146 0.603029 1.258033 4.775044 1.066947 5.231638 17.745980 4.563291 -1.890655 15.714136 1.556725 -4.058106 -6.561537 3.584935 -2.591923 -4.337905 -6.234474 7.313509 -8.156425 -6.740353 116.249451 -84.322887 -127.711880 15.495849 1.575653 54.322199 -11.384859 -2.304540 0.360701 12.387764 -10.136366 3.904748 162.991626 -76.522420 -163.393045 -1.314137 15.569357 -90.977634 0.786043 -47.180739 10.808104 -117.950433 84.096233 -106.040506 -2.049927 -13.144866 -3.023417 0.044710 0.883006 -0.019981 -8.880588 -50.952935 16.577863 -148.636106 80.540658 -156.101972 1.871105 -16.515767 8.307167 -0.479318 -0.771645 -0.186569
22.357072 49.913417 58.995763 173.358593 -33.413674 -7.290818 6.318364 20.799054 6.597534 0.735597 2.927616 0.609234 1.255929 4.757042 1.073654 5.226576 17.720501 4.581102 -1.888520 15.700429 1.521084 -4.051884 -6.575580 3.531423 -2.529159 -4.269675 -6.435608 7.361524 -8.019544 -7.180107 122.284198 -84.070397 -133.482492 15.334796 0.799144 56.327566 -11.377065 -2.359328 0.385231 12.133254 -10.197084 4.368990 159.738573 -76.102525 -160.866676 -0.719505 15.635865 -90.878002 0.736208 -47.234509 10.815014 -118.275904 84.103566 -106.350372 -2.089277 -13.163671 -3.060184 0.091600 0.875028 -0.012455 -8.902348 -51.003730 16.601588 -148.661111 80.525413 -156.150642 1.857552 -16.539968 8.331275 -0.488235 -0.767079 -0.193608
22.359504 49.912368 58.986711 173.341476 -33.357192 -7.249040 6.316708 20.748457 6.564951 0.749656 2.930433 0.631212 1.251568 4.734655 1.080225 5.217767 17.692593 4.599033 -1.880151 15.685779 1.490012 -4.080100 -6.536483 3.505629 -2.463396 -4.196379 -6.568647 7.434298 -7.875205 -7.650124 128.167192 -83.772451 -139.156187 15.121134 0.021347 58.309080 -11.376071 -2.391461 0.391212 11.851430 -10.281519 4.818213 156.662936 -75.696508 -158.490103 -0.179607 15.708391 -90.842983 0.659434 -47.293083 10.814639 -118.687498 84.118217 -106.795869 -2.079712 -13.162720 -3.079554 0.093798 0.851669 -0.033160 -8.870611 -51.063579 16.580413 -148.734376 80.515322 -156.238835 1.820017 -16.557637 8.347812 -0.488154 -0.768101 -0.196778
